<svg id="Layer_1" data-name="Layer 1" xmlns="http://www.w3.org/2000/svg" viewBox="0 0 253.07 253.07"><defs><style>.cls-1{fill:#e2231a;}</style></defs><title>Artboard 2</title><path class="cls-1" d="M30.89,163.18a101.42,101.42,0,0,1-6.75-36.64c0-56.5,46.11-102.46,102.6-102.46a100.59,100.59,0,0,1,14.52,1.05L129.69,36.72c-1.05,0-2.09-.07-3.15-.07a90,90,0,0,0-89.88,89.89A91.38,91.38,0,0,0,40,151h78.66L85.83,212.94l79.5-80.29H57.22L178.64,11.23A126.51,126.51,0,0,0,60.57,234.47l37.78-71.26Z"/><path class="cls-1" d="M192.51,18.6,154.72,89.86h67.44A102.37,102.37,0,0,1,126.54,229a103.91,103.91,0,0,1-15-1.09L123,216.34c1.18,0,2.36.08,3.54.08a90,90,0,0,0,89.89-89.88s0-13.08-3.38-24.45H134.4l32.84-62L86.52,120.42h108.4L74.43,241.84A126.51,126.51,0,0,0,192.51,18.6Z"/></svg>